<svg xmlns="http://www.w3.org/2000/svg" viewBox="0 0 44 21.37"><title>saraNeg</title><g id="Layer_2" data-name="Layer 2"><g id="Layer_1-2" data-name="Layer 1"><path d="M18,8.94h0L16.9,12.08h2.22Zm9.84-.37a1.45,1.45,0,0,0-1-.28H24.84V10.7H26.9a1.4,1.4,0,0,0,1-.29,1.2,1.2,0,0,0,.32-.93A1.17,1.17,0,0,0,27.88,8.57Zm0,0a1.45,1.45,0,0,0-1-.28H24.84V10.7H26.9a1.4,1.4,0,0,0,1-.29,1.2,1.2,0,0,0,.32-.93A1.17,1.17,0,0,0,27.88,8.57ZM18,8.94h0L16.9,12.08h2.22Zm0,0h0L16.9,12.08h2.22Zm9.84-.37a1.45,1.45,0,0,0-1-.28H24.84V10.7H26.9a1.4,1.4,0,0,0,1-.29,1.2,1.2,0,0,0,.32-.93A1.17,1.17,0,0,0,27.88,8.57Zm7,.37h0l-1.12,3.14H36Zm0,0h0l-1.12,3.14H36Zm-7-.37a1.45,1.45,0,0,0-1-.28H24.84V10.7H26.9a1.4,1.4,0,0,0,1-.29,1.2,1.2,0,0,0,.32-.93A1.17,1.17,0,0,0,27.88,8.57ZM18,8.94h0L16.9,12.08h2.22Zm0,0h0L16.9,12.08h2.22Zm9.84-.37a1.45,1.45,0,0,0-1-.28H24.84V10.7H26.9a1.4,1.4,0,0,0,1-.29,1.2,1.2,0,0,0,.32-.93A1.17,1.17,0,0,0,27.88,8.57Zm7,.37h0l-1.12,3.14H36Zm0,0h0l-1.12,3.14H36Zm-7-.37a1.45,1.45,0,0,0-1-.28H24.84V10.7H26.9a1.4,1.4,0,0,0,1-.29,1.2,1.2,0,0,0,.32-.93A1.17,1.17,0,0,0,27.88,8.57ZM18,8.94h0L16.9,12.08h2.22Zm0,0h0L16.9,12.08h2.22Zm9.84-.37a1.45,1.45,0,0,0-1-.28H24.84V10.7H26.9a1.4,1.4,0,0,0,1-.29,1.2,1.2,0,0,0,.32-.93A1.17,1.17,0,0,0,27.88,8.57Zm7,.37h0l-1.12,3.14H36Zm0,0h0l-1.12,3.14H36Zm-7-.37a1.45,1.45,0,0,0-1-.28H24.84V10.7H26.9a1.4,1.4,0,0,0,1-.29,1.2,1.2,0,0,0,.32-.93A1.17,1.17,0,0,0,27.88,8.57ZM18,8.94h0L16.9,12.08h2.22Zm0,0h0L16.9,12.08h2.22Zm9.84-.37a1.45,1.45,0,0,0-1-.28H24.84V10.7H26.9a1.4,1.4,0,0,0,1-.29,1.2,1.2,0,0,0,.32-.93A1.17,1.17,0,0,0,27.88,8.57Zm7,.37h0l-1.12,3.14H36ZM18,8.94h0L16.9,12.08h2.22Zm9.84-.37a1.45,1.45,0,0,0-1-.28H24.84V10.7H26.9a1.4,1.4,0,0,0,1-.29,1.2,1.2,0,0,0,.32-.93A1.17,1.17,0,0,0,27.88,8.57Zm7,.37h0l-1.12,3.14H36ZM18,8.94h0L16.9,12.08h2.22Zm9.84-.37a1.45,1.45,0,0,0-1-.28H24.84V10.7H26.9a1.4,1.4,0,0,0,1-.29,1.2,1.2,0,0,0,.32-.93A1.17,1.17,0,0,0,27.88,8.57Zm7,.37h0l-1.12,3.14H36ZM18,8.94h0L16.9,12.08h2.22Zm9.84-.37a1.45,1.45,0,0,0-1-.28H24.84V10.7H26.9a1.4,1.4,0,0,0,1-.29,1.2,1.2,0,0,0,.32-.93A1.17,1.17,0,0,0,27.88,8.57Zm7,.37h0l-1.12,3.14H36ZM18,8.94h0L16.9,12.08h2.22Zm9.84-.37a1.45,1.45,0,0,0-1-.28H24.84V10.7H26.9a1.4,1.4,0,0,0,1-.29,1.2,1.2,0,0,0,.32-.93A1.17,1.17,0,0,0,27.88,8.57Zm7,.37h0l-1.12,3.14H36ZM18,8.94h0L16.9,12.08h2.22Zm9.84-.37a1.45,1.45,0,0,0-1-.28H24.84V10.7H26.9a1.4,1.4,0,0,0,1-.29,1.2,1.2,0,0,0,.32-.93A1.17,1.17,0,0,0,27.88,8.57Zm7,.37h0l-1.12,3.14H36ZM18,8.94h0L16.9,12.08h2.22Zm9.84-.37a1.45,1.45,0,0,0-1-.28H24.84V10.7H26.9a1.4,1.4,0,0,0,1-.29,1.2,1.2,0,0,0,.32-.93A1.17,1.17,0,0,0,27.88,8.57Zm7,.37h0l-1.12,3.14H36Zm0,0h0l-1.12,3.14H36Zm-7-.37a1.45,1.45,0,0,0-1-.28H24.84V10.7H26.9a1.4,1.4,0,0,0,1-.29,1.2,1.2,0,0,0,.32-.93A1.17,1.17,0,0,0,27.88,8.57ZM18,8.94h0L16.9,12.08h2.22Zm0,0h0L16.9,12.08h2.22Zm9.84-.37a1.45,1.45,0,0,0-1-.28H24.84V10.7H26.9a1.4,1.4,0,0,0,1-.29,1.2,1.2,0,0,0,.32-.93A1.17,1.17,0,0,0,27.88,8.57Zm7,.37h0l-1.12,3.14H36Zm0,0h0l-1.12,3.14H36Zm-7-.37a1.45,1.45,0,0,0-1-.28H24.84V10.7H26.9a1.4,1.4,0,0,0,1-.29,1.2,1.2,0,0,0,.32-.93A1.17,1.17,0,0,0,27.88,8.57ZM18,8.94h0L16.9,12.08h2.22Zm0,0h0L16.9,12.08h2.22Zm9.84-.37a1.45,1.45,0,0,0-1-.28H24.84V10.7H26.9a1.4,1.4,0,0,0,1-.29,1.2,1.2,0,0,0,.32-.93A1.17,1.17,0,0,0,27.88,8.57Zm7,.37h0l-1.12,3.14H36Zm0,0h0l-1.12,3.14H36Zm-7-.37a1.45,1.45,0,0,0-1-.28H24.84V10.7H26.9a1.4,1.4,0,0,0,1-.29,1.2,1.2,0,0,0,.32-.93A1.17,1.17,0,0,0,27.88,8.57ZM18,8.94h0L16.9,12.08h2.22Zm0,0h0L16.9,12.08h2.22Zm9.84-.37a1.45,1.45,0,0,0-1-.28H24.84V10.7H26.9a1.4,1.4,0,0,0,1-.29,1.2,1.2,0,0,0,.32-.93A1.17,1.17,0,0,0,27.88,8.57Zm7,.37h0l-1.12,3.14H36Zm0,0h0l-1.12,3.14H36Zm-7-.37a1.45,1.45,0,0,0-1-.28H24.84V10.7H26.9a1.4,1.4,0,0,0,1-.29,1.2,1.2,0,0,0,.32-.93A1.17,1.17,0,0,0,27.88,8.57ZM18,8.94h0L16.9,12.08h2.22Zm0,0h0L16.9,12.08h2.22Zm9.84-.37a1.45,1.45,0,0,0-1-.28H24.84V10.7H26.9a1.4,1.4,0,0,0,1-.29,1.2,1.2,0,0,0,.32-.93A1.17,1.17,0,0,0,27.88,8.57Zm7,.37h0l-1.12,3.14H36Zm0,0h0l-1.12,3.14H36Zm-7-.37a1.45,1.45,0,0,0-1-.28H24.84V10.7H26.9a1.4,1.4,0,0,0,1-.29,1.2,1.2,0,0,0,.32-.93A1.17,1.17,0,0,0,27.88,8.57ZM18,8.94h0L16.9,12.08h2.22Zm0,0h0L16.9,12.08h2.22Zm9.84-.37a1.45,1.45,0,0,0-1-.28H24.84V10.7H26.9a1.4,1.4,0,0,0,1-.29,1.2,1.2,0,0,0,.32-.93A1.17,1.17,0,0,0,27.88,8.57Zm7,.37h0l-1.12,3.14H36Zm0,0h0l-1.12,3.14H36Zm-7-.37a1.45,1.45,0,0,0-1-.28H24.84V10.7H26.9a1.4,1.4,0,0,0,1-.29,1.2,1.2,0,0,0,.32-.93A1.17,1.17,0,0,0,27.88,8.57ZM18,8.94h0L16.9,12.08h2.22ZM0,0V21.37H44V0ZM13.39,13.94a2.27,2.27,0,0,1-.67.87,3.12,3.12,0,0,1-1.12.57,5.12,5.12,0,0,1-1.54.21,5.33,5.33,0,0,1-1.38-.18,3.49,3.49,0,0,1-1.17-.54,2.76,2.76,0,0,1-.81-1,2.83,2.83,0,0,1-.29-1.37H8.23a1.61,1.61,0,0,0,.16.73,1.4,1.4,0,0,0,.41.49,2,2,0,0,0,.61.27,2.84,2.84,0,0,0,.72.09,3.44,3.44,0,0,0,.54,0,2,2,0,0,0,.54-.16,1.14,1.14,0,0,0,.42-.33.84.84,0,0,0,.17-.53.79.79,0,0,0-.22-.57,2,2,0,0,0-.59-.36,6.49,6.49,0,0,0-.81-.25c-.31-.07-.61-.15-.93-.24a9.14,9.14,0,0,1-.93-.29,3.39,3.39,0,0,1-.82-.45,2.27,2.27,0,0,1-.58-.69,2.09,2.09,0,0,1-.22-1A2.19,2.19,0,0,1,7,8.07a2.4,2.4,0,0,1,.74-.81,3,3,0,0,1,1-.48A4.15,4.15,0,0,1,9.9,6.62a5.43,5.43,0,0,1,1.29.15,3.14,3.14,0,0,1,1.1.49,2.43,2.43,0,0,1,.76.86,2.58,2.58,0,0,1,.28,1.26H11.51a1.57,1.57,0,0,0-.16-.63,1.1,1.1,0,0,0-.37-.4,1.41,1.41,0,0,0-.52-.2,3.24,3.24,0,0,0-.64-.06,2.38,2.38,0,0,0-.46,0A1.36,1.36,0,0,0,9,8.3a1,1,0,0,0-.31.3.81.81,0,0,0-.12.46.73.73,0,0,0,.1.41A.8.8,0,0,0,9,9.75a4.27,4.27,0,0,0,.78.27l1.3.33c.16,0,.38.09.66.18a3.12,3.12,0,0,1,.85.4,2.58,2.58,0,0,1,.73.74,2.13,2.13,0,0,1,.3,1.18A2.48,2.48,0,0,1,13.39,13.94Zm6.87,1.45-.65-1.9h-3.2l-.68,1.9H13.84l3.24-8.56H19l3.2,8.56Zm8.19,0a3.27,3.27,0,0,1-.19-1c0-.37-.06-.73-.11-1.08a1.65,1.65,0,0,0-.41-1,1.37,1.37,0,0,0-1-.31H24.84v3.34H23V6.83h4.62a2.78,2.78,0,0,1,1,.18,2.61,2.61,0,0,1,.8.51,2.28,2.28,0,0,1,.67,1.67,2.62,2.62,0,0,1-.31,1.31,2,2,0,0,1-1,.84v0a1.41,1.41,0,0,1,.57.3,1.53,1.53,0,0,1,.38.46,2.65,2.65,0,0,1,.21.6c0,.21.07.43.09.65s0,.29,0,.48,0,.37,0,.56a3.34,3.34,0,0,0,.1.55,1.14,1.14,0,0,0,.2.43Zm8.69,0-.65-1.9h-3.2l-.67,1.9h-1.9L34,6.83h1.93l3.21,8.56ZM34.9,8.94l-1.12,3.14H36L34.92,8.94Zm-8-.65H24.84V10.7H26.9a1.4,1.4,0,0,0,1-.29,1.2,1.2,0,0,0,.32-.93,1.17,1.17,0,0,0-.32-.91A1.45,1.45,0,0,0,26.9,8.29ZM18,8.94,16.9,12.08h2.22L18,8.94Zm0,0h0L16.9,12.08h2.22Zm9.84-.37a1.45,1.45,0,0,0-1-.28H24.84V10.7H26.9a1.4,1.4,0,0,0,1-.29,1.2,1.2,0,0,0,.32-.93A1.17,1.17,0,0,0,27.88,8.57Zm7,.37h0l-1.12,3.14H36Zm0,0h0l-1.12,3.14H36Zm-7-.37a1.45,1.45,0,0,0-1-.28H24.84V10.7H26.9a1.4,1.4,0,0,0,1-.29,1.2,1.2,0,0,0,.32-.93A1.17,1.17,0,0,0,27.88,8.57ZM18,8.94h0L16.9,12.08h2.22Zm0,0h0L16.9,12.08h2.22Zm9.84-.37a1.45,1.45,0,0,0-1-.28H24.84V10.7H26.9a1.4,1.4,0,0,0,1-.29,1.2,1.2,0,0,0,.32-.93A1.17,1.17,0,0,0,27.88,8.57Zm7,.37h0l-1.12,3.14H36Zm0,0h0l-1.12,3.14H36Zm-7-.37a1.45,1.45,0,0,0-1-.28H24.84V10.7H26.9a1.4,1.4,0,0,0,1-.29,1.2,1.2,0,0,0,.32-.93A1.17,1.17,0,0,0,27.88,8.57ZM18,8.94h0L16.9,12.08h2.22Zm0,0h0L16.9,12.08h2.22Zm9.84-.37a1.45,1.45,0,0,0-1-.28H24.84V10.7H26.9a1.4,1.4,0,0,0,1-.29,1.2,1.2,0,0,0,.32-.93A1.17,1.17,0,0,0,27.88,8.57Zm7,.37h0l-1.12,3.14H36Zm0,0h0l-1.12,3.14H36Zm-7-.37a1.45,1.45,0,0,0-1-.28H24.84V10.7H26.9a1.4,1.4,0,0,0,1-.29,1.2,1.2,0,0,0,.32-.93A1.17,1.17,0,0,0,27.88,8.57ZM18,8.94h0L16.9,12.08h2.22Zm0,0h0L16.9,12.08h2.22Zm9.84-.37a1.45,1.45,0,0,0-1-.28H24.84V10.7H26.9a1.4,1.4,0,0,0,1-.29,1.2,1.2,0,0,0,.32-.93A1.17,1.17,0,0,0,27.88,8.57Zm7,.37h0l-1.12,3.14H36Zm0,0h0l-1.12,3.14H36Zm-7-.37a1.45,1.45,0,0,0-1-.28H24.84V10.7H26.9a1.4,1.4,0,0,0,1-.29,1.2,1.2,0,0,0,.32-.93A1.17,1.17,0,0,0,27.88,8.57ZM18,8.94h0L16.9,12.08h2.22Zm0,0h0L16.9,12.08h2.22Zm9.84-.37a1.45,1.45,0,0,0-1-.28H24.84V10.7H26.9a1.4,1.4,0,0,0,1-.29,1.2,1.2,0,0,0,.32-.93A1.17,1.17,0,0,0,27.88,8.57Zm7,.37h0l-1.12,3.14H36Zm0,0h0l-1.12,3.14H36Zm-7-.37a1.45,1.45,0,0,0-1-.28H24.84V10.7H26.9a1.4,1.4,0,0,0,1-.29,1.2,1.2,0,0,0,.32-.93A1.17,1.17,0,0,0,27.88,8.57ZM18,8.94h0L16.9,12.08h2.22Zm0,0h0L16.9,12.08h2.22Zm9.84-.37a1.45,1.45,0,0,0-1-.28H24.84V10.7H26.9a1.4,1.4,0,0,0,1-.29,1.2,1.2,0,0,0,.32-.93A1.17,1.17,0,0,0,27.88,8.57Zm7,.37h0l-1.12,3.14H36Zm0,0h0l-1.12,3.14H36Zm-7-.37a1.45,1.45,0,0,0-1-.28H24.84V10.7H26.9a1.4,1.4,0,0,0,1-.29,1.2,1.2,0,0,0,.32-.93A1.17,1.17,0,0,0,27.88,8.57ZM18,8.94h0L16.9,12.08h2.22Zm16.88,0h0l-1.12,3.14H36Zm-7-.37a1.45,1.45,0,0,0-1-.28H24.84V10.7H26.9a1.4,1.4,0,0,0,1-.29,1.2,1.2,0,0,0,.32-.93A1.17,1.17,0,0,0,27.88,8.57ZM18,8.94h0L16.9,12.08h2.22Zm16.88,0h0l-1.12,3.14H36Zm-7-.37a1.45,1.45,0,0,0-1-.28H24.84V10.7H26.9a1.4,1.4,0,0,0,1-.29,1.2,1.2,0,0,0,.32-.93A1.17,1.17,0,0,0,27.88,8.57ZM18,8.94h0L16.9,12.08h2.22Zm16.88,0h0l-1.12,3.14H36Zm-7-.37a1.45,1.45,0,0,0-1-.28H24.84V10.7H26.9a1.4,1.4,0,0,0,1-.29,1.2,1.2,0,0,0,.32-.93A1.17,1.17,0,0,0,27.88,8.57ZM18,8.94h0L16.9,12.08h2.22Zm16.88,0h0l-1.12,3.14H36Zm-7-.37a1.45,1.45,0,0,0-1-.28H24.84V10.7H26.9a1.4,1.4,0,0,0,1-.29,1.2,1.2,0,0,0,.32-.93A1.17,1.17,0,0,0,27.88,8.57ZM18,8.94h0L16.9,12.08h2.22Zm16.88,0h0l-1.12,3.14H36Zm-7-.37a1.45,1.45,0,0,0-1-.28H24.84V10.7H26.9a1.4,1.4,0,0,0,1-.29,1.2,1.2,0,0,0,.32-.93A1.17,1.17,0,0,0,27.88,8.57ZM18,8.94h0L16.9,12.08h2.22Zm16.88,0h0l-1.12,3.14H36Zm-7-.37a1.45,1.45,0,0,0-1-.28H24.84V10.7H26.9a1.4,1.4,0,0,0,1-.29,1.2,1.2,0,0,0,.32-.93A1.17,1.17,0,0,0,27.88,8.57ZM18,8.94h0L16.9,12.08h2.22Zm0,0h0L16.9,12.08h2.22Zm9.84-.37a1.45,1.45,0,0,0-1-.28H24.84V10.7H26.9a1.4,1.4,0,0,0,1-.29,1.2,1.2,0,0,0,.32-.93A1.17,1.17,0,0,0,27.88,8.57Zm7,.37h0l-1.12,3.14H36Zm0,0h0l-1.12,3.14H36Zm-7-.37a1.45,1.45,0,0,0-1-.28H24.84V10.7H26.9a1.4,1.4,0,0,0,1-.29,1.2,1.2,0,0,0,.32-.93A1.17,1.17,0,0,0,27.88,8.57ZM18,8.94h0L16.9,12.08h2.22Zm0,0h0L16.9,12.08h2.22Zm9.84-.37a1.45,1.45,0,0,0-1-.28H24.84V10.7H26.9a1.4,1.4,0,0,0,1-.29,1.2,1.2,0,0,0,.32-.93A1.17,1.17,0,0,0,27.88,8.57Zm7,.37h0l-1.12,3.14H36Zm0,0h0l-1.12,3.14H36Zm-7-.37a1.45,1.45,0,0,0-1-.28H24.84V10.7H26.9a1.4,1.4,0,0,0,1-.29,1.2,1.2,0,0,0,.32-.93A1.17,1.17,0,0,0,27.88,8.57ZM18,8.94h0L16.9,12.08h2.22Zm0,0h0L16.9,12.08h2.22Zm9.84-.37a1.45,1.45,0,0,0-1-.28H24.84V10.7H26.9a1.4,1.4,0,0,0,1-.29,1.2,1.2,0,0,0,.32-.93A1.17,1.17,0,0,0,27.88,8.57Zm7,.37h0l-1.12,3.14H36Zm0,0h0l-1.12,3.14H36Zm-7-.37a1.45,1.45,0,0,0-1-.28H24.84V10.7H26.9a1.4,1.4,0,0,0,1-.29,1.2,1.2,0,0,0,.32-.93A1.17,1.17,0,0,0,27.88,8.57ZM18,8.94h0L16.9,12.08h2.22Zm0,0h0L16.9,12.08h2.22Zm0,0h0L16.9,12.08h2.22Z"/></g></g></svg>