<?xml version="1.0" encoding="UTF-8"?>
<svg id="Layer_1" xmlns="http://www.w3.org/2000/svg" version="1.1" viewBox="0 0 512 512">
  <!-- Generator: Adobe Illustrator 29.8.3, SVG Export Plug-In . SVG Version: 2.1.1 Build 3)  -->
  <defs>
    <style>
      .st0 {
        fill: #c31c94;
      }
    </style>
  </defs>
  <g id="Layer_2">
    <g id="Capa_1">
      <path class="st0" d="M256,0C114.61,0,0,114.61,0,256s114.61,256,256,256,256-114.61,256-256S397.39,0,256,0ZM408,408c-19.59,19.64-42.8,35.29-68.35,46.09-6.5,2.75-13.1,5.17-19.8,7.25v-38.34c0-20.17-6.92-35-20.75-44.5,8.02-.74,16-1.9,23.9-3.5,7.8-1.66,15.49-3.83,23-6.5,7.59-2.6,14.88-5.99,21.75-10.12,6.81-4.24,13.04-9.37,18.5-15.25,5.97-6.32,10.98-13.48,14.88-21.25,4.38-9.05,7.58-18.63,9.5-28.5,2.43-12.05,3.6-24.33,3.5-36.62,0-25.83-8.42-47.83-25.25-66,7.67-20,6.83-41.75-2.5-65.25l-6.25-.75c-4.33-.5-12.12,1.33-23.37,5.5-11.25,4.17-23.87,11-37.87,20.5-20.11-5.54-40.89-8.31-61.75-8.25-20.78-.1-41.48,2.68-61.5,8.25-8.03-5.52-16.42-10.49-25.12-14.87-6.11-3.17-12.46-5.84-19-8-4.31-1.33-8.75-2.21-13.25-2.62-2.61-.3-5.24-.39-7.87-.25-.85.1-1.68.27-2.5.5-9.33,23.67-10.17,45.42-2.5,65.25-16.83,18.17-25.25,40.17-25.25,66-.1,12.3,1.07,24.57,3.5,36.63,1.92,9.87,5.12,19.45,9.5,28.5,3.89,7.76,8.89,14.91,14.85,21.23,5.47,5.88,11.69,11.01,18.5,15.25,6.87,4.13,14.16,7.53,21.75,10.13,7.51,2.67,15.2,4.84,23,6.5,7.89,1.59,15.86,2.76,23.88,3.5-13.67,9.33-20.5,24.17-20.5,44.5v39.11C80.79,428.12,16.06,308.26,50.07,194.42c18.36-61.47,63.19-111.53,122.26-136.54,109.38-46.22,235.51,4.97,281.73,114.35,34.08,80.64,15.86,173.89-46.06,235.77Z"/>
    </g>
  </g>
</svg>