<?xml version="1.0" encoding="UTF-8"?>
<svg id="Layer_1" xmlns="http://www.w3.org/2000/svg" version="1.1" viewBox="0 0 1404.98 1504">
  <!-- Generator: Adobe Illustrator 29.8.3, SVG Export Plug-In . SVG Version: 2.1.1 Build 3)  -->
  <defs>
    <style>
      .st0 {
        fill: #c31c94;
      }
    </style>
  </defs>
  <g id="Layer_2">
    <g id="Layer_1-2">
      <g id="Layer_1-3">
        <path class="st0" d="M1389,1504h-310.7v-654.58c0-34.33-4.61-63.08-19-82.3-13.8-18.44-38-29.21-78.14-29.21-129.83,0-162.3,98.42-166.49,113.36v652.73h-326.62V438.37h326.63v84.36c27.3-17.71,56.2-32.84,86.3-45.2,61.31-25.32,126.99-38.38,193.32-38.43,60.78,0,160.81,21.69,231.19,117.93,46.25,63.24,79.49,158.59,79.49,301v645.97h-16,.02Z"/>
        <path class="st0" d="M163.81,309.53c-85.47-.2-154.6-69.65-154.4-155.12,0,0,0,0,0-.01C9.44,69.14,78.55.03,163.81,0l.13.06c40.94.34,80.12,16.76,109.06,45.72,28.92,28.75,45.19,67.84,45.21,108.62.23,85.45-68.86,154.9-154.31,155.13-.03,0-.06,0-.09,0Z"/>
        <polygon class="st0" points="311.62 1504 16 1504 0 1504 0 1488 0 454.37 0 438.37 16 438.37 311.62 438.37 327.62 438.37 327.62 454.37 327.62 1488 327.62 1504 311.62 1504"/>
      </g>
    </g>
  </g>
</svg>